<?xml version="1.0" encoding="UTF-8" standalone="no"?><!-- Generator: Gravit.io --><svg xmlns="http://www.w3.org/2000/svg" xmlns:xlink="http://www.w3.org/1999/xlink" style="isolation:isolate" viewBox="0 0 501 274.625" width="501pt" height="274.625pt"><g><g><g><path d="M 178.29 30.125 L 304.71 30.125 C 306.526 30.125 308 31.599 308 33.415 L 308 61.835 C 308 63.651 306.526 65.125 304.71 65.125 L 178.29 65.125 C 176.474 65.125 175 63.651 175 61.835 L 175 33.415 C 175 31.599 176.474 30.125 178.29 30.125 Z" style="stroke:none;fill:#EBEBEB;stroke-miterlimit:10;"/></g></g><g><path d=" M 300.029 47.622 C 300.029 47.624 300.029 47.624 300.029 47.625 L 300.029 47.625 L 300.029 47.622 Z  M 300.029 47.622 C 300.029 47.624 300.029 47.624 300.029 47.625 C 300.031 49.251 299.705 50.859 299.072 52.357 C 298.461 53.8 297.577 55.113 296.468 56.22 C 295.359 57.329 294.048 58.213 292.604 58.825 C 291.107 59.458 289.497 59.784 287.871 59.783 C 286.247 59.784 284.637 59.458 283.141 58.825 C 281.696 58.213 280.385 57.329 279.276 56.22 C 278.168 55.113 277.283 53.8 276.671 52.357 C 276.038 50.859 275.713 49.251 275.715 47.625 C 275.713 46 276.038 44.391 276.671 42.894 C 277.283 41.45 278.168 40.137 279.276 39.03 C 280.385 37.921 281.696 37.037 283.141 36.425 C 284.637 35.792 286.247 35.466 287.871 35.467 C 289.497 35.466 291.107 35.792 292.604 36.425 C 294.048 37.037 295.359 37.921 296.468 39.03 C 297.577 40.137 298.461 41.45 299.072 42.893 C 299.705 44.391 300.031 45.999 300.029 47.625 M 294.527 47.622 C 294.527 47.624 294.527 47.624 294.527 47.625 L 294.527 47.625 L 294.527 47.628 C 294.528 48.515 294.351 49.394 294.005 50.213 C 293.67 51.004 293.184 51.723 292.576 52.33 C 291.969 52.938 291.251 53.422 290.46 53.758 C 289.64 54.103 288.761 54.282 287.871 54.28 C 286.983 54.282 286.102 54.103 285.284 53.758 C 284.493 53.422 283.775 52.938 283.167 52.33 C 282.56 51.723 282.074 51.004 281.739 50.213 C 281.394 49.394 281.216 48.514 281.217 47.625 C 281.216 46.735 281.394 45.855 281.74 45.036 C 282.074 44.246 282.56 43.527 283.167 42.92 C 283.775 42.312 284.493 41.828 285.284 41.492 C 286.102 41.147 286.983 40.968 287.871 40.97 C 288.761 40.968 289.64 41.147 290.46 41.492 C 291.251 41.828 291.969 42.312 292.576 42.92 C 293.184 43.527 293.67 44.246 294.005 45.037 C 294.351 45.856 294.528 46.735 294.527 47.622 Z " fill-rule="evenodd" fill="rgb(183,110,28)"/><g><path d=" M 285.538 32.253 L 290.206 32.253 L 291.227 36.447 L 284.517 36.447 L 285.538 32.253 Z " fill="rgb(183,110,28)"/><path d=" M 290.206 62.997 L 285.538 62.997 L 284.517 58.803 L 291.227 58.803 L 290.206 62.997 Z " fill="rgb(183,110,28)"/><path d=" M 303.244 45.499 L 303.244 50.167 L 299.05 51.188 L 299.05 44.478 L 303.244 45.499 Z " fill="rgb(183,110,28)"/><path d=" M 272.5 50.167 L 272.5 45.499 L 276.694 44.478 L 276.694 51.188 L 272.5 50.167 Z " fill="rgb(183,110,28)"/><path d=" M 297.091 35.14 L 300.392 38.441 L 298.148 42.128 L 293.404 37.384 L 297.091 35.14 Z " fill="rgb(183,110,28)"/><path d=" M 278.653 60.18 L 275.352 56.879 L 277.596 53.192 L 282.34 57.936 L 278.653 60.18 Z " fill="rgb(183,110,28)"/><path d=" M 300.245 57.027 L 296.944 60.327 L 293.257 58.083 L 298.001 53.339 L 300.245 57.027 Z " fill="rgb(183,110,28)"/><path d=" M 275.205 38.588 L 278.506 35.287 L 282.193 37.531 L 277.449 42.275 L 275.205 38.588 Z " fill="rgb(183,110,28)"/></g></g><g><rect x="332.283" y="33.342" width="10" height="28.567" transform="matrix(0,1,-1,0,384.908,-289.658)" fill="rgb(210,209,209)"/><polygon points="373,47.625,350,60.719,350,34.531" fill="rgb(210,209,209)"/></g></g><g><g><g><path d="M 178.29 95.231 L 304.71 95.231 C 306.526 95.231 308 96.705 308 98.521 L 308 126.941 C 308 128.757 306.526 130.231 304.71 130.231 L 178.29 130.231 C 176.474 130.231 175 128.757 175 126.941 L 175 98.521 C 175 96.705 176.474 95.231 178.29 95.231 Z" style="stroke:none;fill:#EBEBEB;stroke-miterlimit:10;"/></g></g><g><path d=" M 300.029 112.729 C 300.029 112.73 300.029 112.73 300.029 112.731 L 300.029 112.731 L 300.029 112.729 Z  M 300.029 112.729 C 300.029 112.73 300.029 112.73 300.029 112.731 C 300.031 114.357 299.705 115.965 299.072 117.463 C 298.461 118.907 297.577 120.219 296.468 121.326 C 295.359 122.435 294.048 123.32 292.604 123.932 C 291.107 124.565 289.497 124.891 287.871 124.889 C 286.247 124.891 284.637 124.565 283.141 123.932 C 281.696 123.32 280.385 122.435 279.276 121.326 C 278.168 120.219 277.283 118.907 276.671 117.463 C 276.038 115.965 275.713 114.357 275.715 112.731 C 275.713 111.107 276.038 109.497 276.671 108 C 277.283 106.556 278.168 105.244 279.276 104.136 C 280.385 103.027 281.696 102.143 283.141 101.531 C 284.637 100.898 286.247 100.572 287.871 100.573 C 289.497 100.572 291.107 100.898 292.604 101.531 C 294.048 102.143 295.359 103.027 296.468 104.136 C 297.577 105.244 298.461 106.556 299.072 107.999 C 299.705 109.497 300.031 111.105 300.029 112.731 M 294.527 112.729 C 294.527 112.73 294.527 112.73 294.527 112.731 L 294.527 112.731 L 294.527 112.734 C 294.528 113.621 294.351 114.5 294.005 115.319 C 293.67 116.11 293.184 116.829 292.576 117.436 C 291.969 118.044 291.251 118.528 290.46 118.864 C 289.64 119.209 288.761 119.388 287.871 119.387 C 286.983 119.388 286.102 119.209 285.284 118.864 C 284.493 118.528 283.775 118.044 283.167 117.436 C 282.56 116.829 282.074 116.11 281.739 115.319 C 281.394 114.5 281.216 113.62 281.217 112.731 C 281.216 111.841 281.394 110.961 281.74 110.142 C 282.074 109.353 282.56 108.633 283.167 108.027 C 283.775 107.419 284.493 106.934 285.284 106.599 C 286.102 106.253 286.983 106.075 287.871 106.076 C 288.761 106.075 289.64 106.253 290.46 106.599 C 291.251 106.934 291.969 107.419 292.576 108.027 C 293.184 108.633 293.67 109.353 294.005 110.144 C 294.351 110.962 294.528 111.841 294.527 112.729 Z " fill-rule="evenodd" fill="rgb(183,110,28)"/><g><path d=" M 285.538 97.359 L 290.206 97.359 L 291.227 101.553 L 284.517 101.553 L 285.538 97.359 Z " fill="rgb(183,110,28)"/><path d=" M 290.206 128.103 L 285.538 128.103 L 284.517 123.909 L 291.227 123.909 L 290.206 128.103 Z " fill="rgb(183,110,28)"/><path d=" M 303.244 110.605 L 303.244 115.273 L 299.05 116.294 L 299.05 109.585 L 303.244 110.605 Z " fill="rgb(183,110,28)"/><path d=" M 272.5 115.273 L 272.5 110.605 L 276.694 109.585 L 276.694 116.294 L 272.5 115.273 Z " fill="rgb(183,110,28)"/><path d=" M 297.091 100.247 L 300.392 103.547 L 298.148 107.235 L 293.404 102.49 L 297.091 100.247 Z " fill="rgb(183,110,28)"/><path d=" M 278.653 125.286 L 275.352 121.986 L 277.596 118.298 L 282.34 123.043 L 278.653 125.286 Z " fill="rgb(183,110,28)"/><path d=" M 300.245 122.133 L 296.944 125.434 L 293.257 123.19 L 298.001 118.445 L 300.245 122.133 Z " fill="rgb(183,110,28)"/><path d=" M 275.205 103.694 L 278.506 100.394 L 282.193 102.637 L 277.449 107.382 L 275.205 103.694 Z " fill="rgb(183,110,28)"/></g></g><g><rect x="332.283" y="98.448" width="10" height="28.567" transform="matrix(0,1,-1,0,450.015,-224.552)" fill="rgb(210,209,209)"/><polygon points="373,112.731,350,125.826,350,99.637" fill="rgb(210,209,209)"/></g></g><g><g><g><path d="M 178.29 160.338 L 304.71 160.338 C 306.526 160.338 308 161.812 308 163.627 L 308 192.048 C 308 193.863 306.526 195.338 304.71 195.338 L 178.29 195.338 C 176.474 195.338 175 193.863 175 192.048 L 175 163.627 C 175 161.812 176.474 160.338 178.29 160.338 Z" style="stroke:none;fill:#EBEBEB;stroke-miterlimit:10;"/></g></g><g><path d=" M 300.029 177.835 C 300.029 177.836 300.029 177.836 300.029 177.838 L 300.029 177.838 L 300.029 177.835 Z  M 300.029 177.835 C 300.029 177.836 300.029 177.836 300.029 177.838 C 300.031 179.464 299.705 181.072 299.072 182.57 C 298.461 184.013 297.577 185.325 296.468 186.433 C 295.359 187.541 294.048 188.426 292.604 189.038 C 291.107 189.671 289.497 189.997 287.871 189.995 C 286.247 189.997 284.637 189.671 283.141 189.038 C 281.696 188.426 280.385 187.541 279.276 186.433 C 278.168 185.325 277.283 184.013 276.671 182.57 C 276.038 181.072 275.713 179.464 275.715 177.838 C 275.713 176.213 276.038 174.603 276.671 173.107 C 277.283 171.662 278.168 170.35 279.276 169.243 C 280.385 168.134 281.696 167.249 283.141 166.637 C 284.637 166.004 286.247 165.678 287.871 165.68 C 289.497 165.678 291.107 166.004 292.604 166.637 C 294.048 167.249 295.359 168.134 296.468 169.243 C 297.577 170.35 298.461 171.662 299.072 173.105 C 299.705 174.603 300.031 176.212 300.029 177.838 M 294.527 177.835 C 294.527 177.836 294.527 177.836 294.527 177.838 L 294.527 177.838 L 294.527 177.84 C 294.528 178.728 294.351 179.607 294.005 180.425 C 293.67 181.216 293.184 181.936 292.576 182.542 C 291.969 183.15 291.251 183.634 290.46 183.97 C 289.64 184.315 288.761 184.494 287.871 184.493 C 286.983 184.494 286.102 184.315 285.284 183.97 C 284.493 183.634 283.775 183.15 283.167 182.542 C 282.56 181.936 282.074 181.216 281.739 180.425 C 281.394 179.607 281.216 178.726 281.217 177.838 C 281.216 176.947 281.394 176.067 281.74 175.249 C 282.074 174.459 282.56 173.739 283.167 173.133 C 283.775 172.525 284.493 172.041 285.284 171.705 C 286.102 171.36 286.983 171.181 287.871 171.182 C 288.761 171.181 289.64 171.36 290.46 171.705 C 291.251 172.041 291.969 172.525 292.576 173.133 C 293.184 173.739 293.67 174.459 294.005 175.25 C 294.351 176.068 294.528 176.947 294.527 177.835 Z " fill-rule="evenodd" fill="rgb(183,110,28)"/><g><path d=" M 285.538 162.466 L 290.206 162.466 L 291.227 166.66 L 284.517 166.66 L 285.538 162.466 Z " fill="rgb(183,110,28)"/><path d=" M 290.206 193.209 L 285.538 193.209 L 284.517 189.015 L 291.227 189.015 L 290.206 193.209 Z " fill="rgb(183,110,28)"/><path d=" M 303.244 175.712 L 303.244 180.38 L 299.05 181.4 L 299.05 174.691 L 303.244 175.712 Z " fill="rgb(183,110,28)"/><path d=" M 272.5 180.38 L 272.5 175.712 L 276.694 174.691 L 276.694 181.4 L 272.5 180.38 Z " fill="rgb(183,110,28)"/><path d=" M 297.091 165.353 L 300.392 168.654 L 298.148 172.341 L 293.404 167.597 L 297.091 165.353 Z " fill="rgb(183,110,28)"/><path d=" M 278.653 190.393 L 275.352 187.092 L 277.596 183.405 L 282.34 188.149 L 278.653 190.393 Z " fill="rgb(183,110,28)"/><path d=" M 300.245 187.239 L 296.944 190.54 L 293.257 188.296 L 298.001 183.552 L 300.245 187.239 Z " fill="rgb(183,110,28)"/><path d=" M 275.205 168.801 L 278.506 165.5 L 282.193 167.744 L 277.449 172.488 L 275.205 168.801 Z " fill="rgb(183,110,28)"/></g></g><g><rect x="332.283" y="163.554" width="10" height="28.567" transform="matrix(0,1,-1,0,515.121,-159.446)" fill="rgb(210,209,209)"/><polygon points="373,177.838,350,190.932,350,164.743" fill="rgb(210,209,209)"/></g></g><polygon points="258.916,138.519,241.5,152.05,224.084,138.519" fill="rgb(210,209,209)"/><polygon points="258.916,203.625,241.5,217.156,224.084,203.625" fill="rgb(210,209,209)"/><polygon points="258.916,73.412,241.5,86.944,224.084,73.412" fill="rgb(210,209,209)"/><g><g><path d=" M 69.978 19.893 C 69.978 23.578 61.474 26.57 51 26.57 C 40.526 26.57 32.022 23.578 32.022 19.893" fill="none" vector-effect="non-scaling-stroke" stroke-width="3" stroke="rgb(41,128,185)" stroke-linejoin="miter" stroke-linecap="square" stroke-miterlimit="3"/><path d=" M 69.978 31.607 C 69.978 35.293 61.474 38.285 51 38.285 C 40.526 38.285 32.022 35.293 32.022 31.607" fill="none" vector-effect="non-scaling-stroke" stroke-width="3" stroke="rgb(41,128,185)" stroke-linejoin="miter" stroke-linecap="square" stroke-miterlimit="3"/><path d=" M 69.978 8.178 C 69.978 11.863 61.474 14.855 51 14.855 C 40.526 14.855 32.022 11.863 32.022 8.178" fill="none" vector-effect="non-scaling-stroke" stroke-width="1" stroke="rgb(41,128,185)" stroke-linejoin="miter" stroke-linecap="square" stroke-miterlimit="3"/><ellipse vector-effect="non-scaling-stroke" cx="51.00000000000003" cy="8.17753623188405" rx="18.978260869565194" ry="6.67753623188405" fill="none" stroke-width="3" stroke="rgb(41,128,185)" stroke-linejoin="miter" stroke-linecap="square" stroke-miterlimit="3"/><path d=" M 69.978 43.322 C 69.978 47.008 61.474 50 51 50 C 40.526 50 32.022 47.008 32.022 43.322" fill="none" vector-effect="non-scaling-stroke" stroke-width="3" stroke="rgb(41,128,185)" stroke-linejoin="miter" stroke-linecap="square" stroke-miterlimit="3"/><line x1="32.022" y1="8.178" x2="32.022" y2="43.322" vector-effect="non-scaling-stroke" stroke-width="3" stroke="rgb(41,128,185)" stroke-linejoin="miter" stroke-linecap="square" stroke-miterlimit="3"/><line x1="69.978" y1="8.178" x2="69.978" y2="43.322" vector-effect="non-scaling-stroke" stroke-width="3" stroke="rgb(41,128,185)" stroke-linejoin="miter" stroke-linecap="square" stroke-miterlimit="3"/><ellipse vector-effect="non-scaling-stroke" cx="64.70652173913038" cy="18.779589371980634" rx="1.7572463768115938" ry="1.815821256038653" fill="rgb(41,128,185)"/></g><path d=" M 42.988 85.765 L 42.773 86.179 L 42.773 86.179 Q 42.692 86.332 42.539 86.332 L 42.539 86.332 L 42.539 86.332 Q 42.422 86.332 42.237 86.166 L 42.237 86.166 L 42.237 86.166 Q 42.051 85.999 41.735 85.797 L 41.735 85.797 L 41.735 85.797 Q 41.419 85.594 40.945 85.423 L 40.945 85.423 L 40.945 85.423 Q 40.471 85.252 39.776 85.252 L 39.776 85.252 L 39.776 85.252 Q 39.081 85.252 38.553 85.45 L 38.553 85.45 L 38.553 85.45 Q 38.024 85.648 37.668 85.99 L 37.668 85.99 L 37.668 85.99 Q 37.311 86.332 37.126 86.782 L 37.126 86.782 L 37.126 86.782 Q 36.941 87.232 36.941 87.727 L 36.941 87.727 L 36.941 87.727 Q 36.941 88.375 37.216 88.798 L 37.216 88.798 L 37.216 88.798 Q 37.491 89.221 37.941 89.518 L 37.941 89.518 L 37.941 89.518 Q 38.392 89.815 38.964 90.018 L 38.964 90.018 L 38.964 90.018 Q 39.537 90.22 40.141 90.418 L 40.141 90.418 L 40.141 90.418 Q 40.744 90.616 41.317 90.855 L 41.317 90.855 L 41.317 90.855 Q 41.889 91.093 42.34 91.453 L 42.34 91.453 L 42.34 91.453 Q 42.79 91.813 43.065 92.34 L 43.065 92.34 L 43.065 92.34 Q 43.34 92.866 43.34 93.649 L 43.34 93.649 L 43.34 93.649 Q 43.34 94.45 43.066 95.157 L 43.066 95.157 L 43.066 95.157 Q 42.791 95.863 42.269 96.385 L 42.269 96.385 L 42.269 96.385 Q 41.747 96.907 40.991 97.209 L 40.991 97.209 L 40.991 97.209 Q 40.235 97.51 39.263 97.51 L 39.263 97.51 L 39.263 97.51 Q 38.003 97.51 37.094 97.065 L 37.094 97.065 L 37.094 97.065 Q 36.185 96.619 35.501 95.845 L 35.501 95.845 L 35.753 95.449 L 35.753 95.449 Q 35.861 95.314 36.005 95.314 L 36.005 95.314 L 36.005 95.314 Q 36.086 95.314 36.212 95.422 L 36.212 95.422 L 36.212 95.422 Q 36.338 95.53 36.519 95.688 L 36.519 95.688 L 36.519 95.688 Q 36.699 95.845 36.951 96.03 L 36.951 96.03 L 36.951 96.03 Q 37.204 96.214 37.537 96.372 L 37.537 96.372 L 37.537 96.372 Q 37.871 96.529 38.303 96.637 L 38.303 96.637 L 38.303 96.637 Q 38.736 96.745 39.286 96.745 L 39.286 96.745 L 39.286 96.745 Q 40.043 96.745 40.637 96.516 L 40.637 96.516 L 40.637 96.516 Q 41.232 96.286 41.642 95.89 L 41.642 95.89 L 41.642 95.89 Q 42.052 95.494 42.269 94.95 L 42.269 94.95 L 42.269 94.95 Q 42.485 94.405 42.485 93.784 L 42.485 93.784 L 42.485 93.784 Q 42.485 93.109 42.21 92.673 L 42.21 92.673 L 42.21 92.673 Q 41.935 92.236 41.485 91.944 L 41.485 91.944 L 41.485 91.944 Q 41.034 91.651 40.462 91.453 L 40.462 91.453 L 40.462 91.453 Q 39.889 91.255 39.286 91.066 L 39.286 91.066 L 39.286 91.066 Q 38.682 90.877 38.109 90.643 L 38.109 90.643 L 38.109 90.643 Q 37.537 90.409 37.086 90.045 L 37.086 90.045 L 37.086 90.045 Q 36.636 89.68 36.361 89.136 L 36.361 89.136 L 36.361 89.136 Q 36.086 88.591 36.086 87.772 L 36.086 87.772 L 36.086 87.772 Q 36.086 87.133 36.329 86.539 L 36.329 86.539 L 36.329 86.539 Q 36.573 85.945 37.041 85.491 L 37.041 85.491 L 37.041 85.491 Q 37.51 85.036 38.199 84.762 L 38.199 84.762 L 38.199 84.762 Q 38.889 84.487 39.772 84.487 L 39.772 84.487 L 39.772 84.487 Q 40.764 84.487 41.552 84.802 L 41.552 84.802 L 41.552 84.802 Q 42.341 85.117 42.988 85.765 L 42.988 85.765 L 42.988 85.765 Z  M 46.013 84.631 L 53.645 84.631 L 53.645 85.396 L 46.94 85.396 L 46.94 90.544 L 52.52 90.544 L 52.52 91.291 L 46.94 91.291 L 46.94 96.601 L 53.645 96.601 L 53.645 97.366 L 46.013 97.366 L 46.013 84.631 L 46.013 84.631 Z  M 55.076 84.631 L 64.967 84.631 L 64.967 85.414 L 60.494 85.414 L 60.494 97.366 L 59.576 97.366 L 59.576 85.414 L 55.076 85.414 L 55.076 84.631 L 55.076 84.631 Z  M 10.648 70.636 L 8.281 70.636 L 8.281 75.766 L 7.363 75.766 L 7.363 63.031 L 10.648 63.031 L 10.648 63.031 Q 12.889 63.031 14.027 64.012 L 14.027 64.012 L 14.027 64.012 Q 15.166 64.993 15.166 66.811 L 15.166 66.811 L 15.166 66.811 Q 15.166 67.648 14.855 68.35 L 14.855 68.35 L 14.855 68.35 Q 14.545 69.052 13.96 69.561 L 13.96 69.561 L 13.96 69.561 Q 13.375 70.069 12.538 70.353 L 12.538 70.353 L 12.538 70.353 Q 11.701 70.636 10.648 70.636 L 10.648 70.636 L 10.648 70.636 Z  M 8.281 63.76 L 8.281 69.898 L 10.648 69.898 L 10.648 69.898 Q 11.494 69.898 12.16 69.664 L 12.16 69.664 L 12.16 69.664 Q 12.826 69.43 13.289 69.016 L 13.289 69.016 L 13.289 69.016 Q 13.753 68.602 14 68.04 L 14 68.04 L 14 68.04 Q 14.248 67.477 14.248 66.811 L 14.248 66.811 L 14.248 66.811 Q 14.248 65.344 13.343 64.552 L 13.343 64.552 L 13.343 64.552 Q 12.439 63.76 10.648 63.76 L 10.648 63.76 L 8.281 63.76 L 8.281 63.76 Z  M 20.629 70.006 L 18.964 70.006 L 18.964 75.766 L 18.046 75.766 L 18.046 63.031 L 21.295 63.031 L 21.295 63.031 Q 23.5 63.031 24.589 63.882 L 24.589 63.882 L 24.589 63.882 Q 25.678 64.732 25.678 66.379 L 25.678 66.379 L 25.678 66.379 Q 25.678 67.108 25.426 67.711 L 25.426 67.711 L 25.426 67.711 Q 25.174 68.314 24.701 68.769 L 24.701 68.769 L 24.701 68.769 Q 24.229 69.223 23.563 69.516 L 23.563 69.516 L 23.563 69.516 Q 22.897 69.808 22.06 69.898 L 22.06 69.898 L 22.06 69.898 Q 22.276 70.033 22.447 70.258 L 22.447 70.258 L 26.83 75.766 L 26.029 75.766 L 26.029 75.766 Q 25.885 75.766 25.781 75.712 L 25.781 75.712 L 25.781 75.712 Q 25.678 75.658 25.579 75.532 L 25.579 75.532 L 21.502 70.366 L 21.502 70.366 Q 21.349 70.168 21.173 70.087 L 21.173 70.087 L 21.173 70.087 Q 20.998 70.006 20.629 70.006 L 20.629 70.006 L 20.629 70.006 Z  M 18.964 63.76 L 18.964 69.322 L 21.178 69.322 L 21.178 69.322 Q 22.024 69.322 22.694 69.12 L 22.694 69.12 L 22.694 69.12 Q 23.365 68.917 23.828 68.539 L 23.828 68.539 L 23.828 68.539 Q 24.292 68.161 24.535 67.63 L 24.535 67.63 L 24.535 67.63 Q 24.778 67.099 24.778 66.433 L 24.778 66.433 L 24.778 66.433 Q 24.778 65.074 23.887 64.417 L 23.887 64.417 L 23.887 64.417 Q 22.996 63.76 21.295 63.76 L 21.295 63.76 L 18.964 63.76 L 18.964 63.76 Z  M 40.105 69.394 L 40.105 69.394 L 40.105 69.394 Q 40.105 70.87 39.664 72.072 L 39.664 72.072 L 39.664 72.072 Q 39.223 73.273 38.422 74.124 L 38.422 74.124 L 38.422 74.124 Q 37.621 74.974 36.505 75.438 L 36.505 75.438 L 36.505 75.438 Q 35.389 75.901 34.03 75.901 L 34.03 75.901 L 34.03 75.901 Q 32.689 75.901 31.573 75.438 L 31.573 75.438 L 31.573 75.438 Q 30.457 74.974 29.656 74.124 L 29.656 74.124 L 29.656 74.124 Q 28.855 73.273 28.409 72.072 L 28.409 72.072 L 28.409 72.072 Q 27.964 70.87 27.964 69.394 L 27.964 69.394 L 27.964 69.394 Q 27.964 67.927 28.409 66.726 L 28.409 66.726 L 28.409 66.726 Q 28.855 65.524 29.656 64.674 L 29.656 64.674 L 29.656 64.674 Q 30.457 63.823 31.573 63.355 L 31.573 63.355 L 31.573 63.355 Q 32.689 62.887 34.03 62.887 L 34.03 62.887 L 34.03 62.887 Q 35.389 62.887 36.505 63.351 L 36.505 63.351 L 36.505 63.351 Q 37.621 63.814 38.422 64.669 L 38.422 64.669 L 38.422 64.669 Q 39.223 65.524 39.664 66.726 L 39.664 66.726 L 39.664 66.726 Q 40.105 67.927 40.105 69.394 Z  M 39.151 69.394 L 39.151 69.394 L 39.151 69.394 Q 39.151 68.062 38.782 67 L 38.782 67 L 38.782 67 Q 38.413 65.938 37.742 65.2 L 37.742 65.2 L 37.742 65.2 Q 37.072 64.462 36.127 64.07 L 36.127 64.07 L 36.127 64.07 Q 35.182 63.679 34.03 63.679 L 34.03 63.679 L 34.03 63.679 Q 32.896 63.679 31.955 64.07 L 31.955 64.07 L 31.955 64.07 Q 31.015 64.462 30.335 65.2 L 30.335 65.2 L 30.335 65.2 Q 29.656 65.938 29.282 67 L 29.282 67 L 29.282 67 Q 28.909 68.062 28.909 69.394 L 28.909 69.394 L 28.909 69.394 Q 28.909 70.735 29.282 71.793 L 29.282 71.793 L 29.282 71.793 Q 29.656 72.85 30.335 73.588 L 30.335 73.588 L 30.335 73.588 Q 31.015 74.326 31.955 74.713 L 31.955 74.713 L 31.955 74.713 Q 32.896 75.1 34.03 75.1 L 34.03 75.1 L 34.03 75.1 Q 35.182 75.1 36.127 74.713 L 36.127 74.713 L 36.127 74.713 Q 37.072 74.326 37.742 73.588 L 37.742 73.588 L 37.742 73.588 Q 38.413 72.85 38.782 71.793 L 38.782 71.793 L 38.782 71.793 Q 39.151 70.735 39.151 69.394 Z  M 46.657 70.636 L 44.29 70.636 L 44.29 75.766 L 43.372 75.766 L 43.372 63.031 L 46.657 63.031 L 46.657 63.031 Q 48.898 63.031 50.036 64.012 L 50.036 64.012 L 50.036 64.012 Q 51.175 64.993 51.175 66.811 L 51.175 66.811 L 51.175 66.811 Q 51.175 67.648 50.864 68.35 L 50.864 68.35 L 50.864 68.35 Q 50.554 69.052 49.969 69.561 L 49.969 69.561 L 49.969 69.561 Q 49.384 70.069 48.547 70.353 L 48.547 70.353 L 48.547 70.353 Q 47.71 70.636 46.657 70.636 L 46.657 70.636 L 46.657 70.636 Z  M 44.29 63.76 L 44.29 69.898 L 46.657 69.898 L 46.657 69.898 Q 47.503 69.898 48.169 69.664 L 48.169 69.664 L 48.169 69.664 Q 48.835 69.43 49.298 69.016 L 49.298 69.016 L 49.298 69.016 Q 49.762 68.602 50.009 68.04 L 50.009 68.04 L 50.009 68.04 Q 50.257 67.477 50.257 66.811 L 50.257 66.811 L 50.257 66.811 Q 50.257 65.344 49.352 64.552 L 49.352 64.552 L 49.352 64.552 Q 48.448 63.76 46.657 63.76 L 46.657 63.76 L 44.29 63.76 L 44.29 63.76 Z  M 53.785 63.031 L 61.417 63.031 L 61.417 63.796 L 54.712 63.796 L 54.712 68.944 L 60.292 68.944 L 60.292 69.691 L 54.712 69.691 L 54.712 75.001 L 61.417 75.001 L 61.417 75.766 L 53.785 75.766 L 53.785 63.031 L 53.785 63.031 Z  M 67.276 70.006 L 65.611 70.006 L 65.611 75.766 L 64.693 75.766 L 64.693 63.031 L 67.942 63.031 L 67.942 63.031 Q 70.147 63.031 71.236 63.882 L 71.236 63.882 L 71.236 63.882 Q 72.325 64.732 72.325 66.379 L 72.325 66.379 L 72.325 66.379 Q 72.325 67.108 72.073 67.711 L 72.073 67.711 L 72.073 67.711 Q 71.821 68.314 71.348 68.769 L 71.348 68.769 L 71.348 68.769 Q 70.876 69.223 70.21 69.516 L 70.21 69.516 L 70.21 69.516 Q 69.544 69.808 68.707 69.898 L 68.707 69.898 L 68.707 69.898 Q 68.923 70.033 69.094 70.258 L 69.094 70.258 L 73.477 75.766 L 72.676 75.766 L 72.676 75.766 Q 72.532 75.766 72.428 75.712 L 72.428 75.712 L 72.428 75.712 Q 72.325 75.658 72.226 75.532 L 72.226 75.532 L 68.149 70.366 L 68.149 70.366 Q 67.996 70.168 67.82 70.087 L 67.82 70.087 L 67.82 70.087 Q 67.645 70.006 67.276 70.006 L 67.276 70.006 L 67.276 70.006 Z  M 65.611 63.76 L 65.611 69.322 L 67.825 69.322 L 67.825 69.322 Q 68.671 69.322 69.341 69.12 L 69.341 69.12 L 69.341 69.12 Q 70.012 68.917 70.475 68.539 L 70.475 68.539 L 70.475 68.539 Q 70.939 68.161 71.182 67.63 L 71.182 67.63 L 71.182 67.63 Q 71.425 67.099 71.425 66.433 L 71.425 66.433 L 71.425 66.433 Q 71.425 65.074 70.534 64.417 L 70.534 64.417 L 70.534 64.417 Q 69.643 63.76 67.942 63.76 L 67.942 63.76 L 65.611 63.76 L 65.611 63.76 Z  M 73.801 63.031 L 83.692 63.031 L 83.692 63.814 L 79.219 63.814 L 79.219 75.766 L 78.301 75.766 L 78.301 63.814 L 73.801 63.814 L 73.801 63.031 L 73.801 63.031 Z  M 94.573 63.031 L 89.866 70.51 L 89.866 75.766 L 88.939 75.766 L 88.939 70.51 L 84.232 63.031 L 85.033 63.031 L 85.033 63.031 Q 85.159 63.031 85.235 63.09 L 85.235 63.09 L 85.235 63.09 Q 85.312 63.148 85.384 63.256 L 85.384 63.256 L 89.029 69.106 L 89.029 69.106 Q 89.155 69.313 89.245 69.507 L 89.245 69.507 L 89.245 69.507 Q 89.335 69.7 89.407 69.898 L 89.407 69.898 L 89.407 69.898 Q 89.479 69.7 89.569 69.507 L 89.569 69.507 L 89.569 69.507 Q 89.659 69.313 89.785 69.106 L 89.785 69.106 L 93.421 63.256 L 93.421 63.256 Q 93.475 63.157 93.556 63.094 L 93.556 63.094 L 93.556 63.094 Q 93.637 63.031 93.763 63.031 L 93.763 63.031 L 94.573 63.031 L 94.573 63.031 Z " fill="rgb(0,0,0)"/></g><path d=" M 387.831 60.261 L 385.464 60.261 L 385.464 65.391 L 384.546 65.391 L 384.546 52.656 L 387.831 52.656 L 387.831 52.656 Q 390.072 52.656 391.21 53.637 L 391.21 53.637 L 391.21 53.637 Q 392.349 54.618 392.349 56.436 L 392.349 56.436 L 392.349 56.436 Q 392.349 57.273 392.038 57.975 L 392.038 57.975 L 392.038 57.975 Q 391.727 58.677 391.143 59.186 L 391.143 59.186 L 391.143 59.186 Q 390.558 59.694 389.721 59.978 L 389.721 59.978 L 389.721 59.978 Q 388.883 60.261 387.831 60.261 L 387.831 60.261 L 387.831 60.261 Z  M 385.464 53.385 L 385.464 59.523 L 387.831 59.523 L 387.831 59.523 Q 388.677 59.523 389.343 59.289 L 389.343 59.289 L 389.343 59.289 Q 390.008 59.055 390.472 58.641 L 390.472 58.641 L 390.472 58.641 Q 390.936 58.227 391.183 57.665 L 391.183 57.665 L 391.183 57.665 Q 391.431 57.102 391.431 56.436 L 391.431 56.436 L 391.431 56.436 Q 391.431 54.969 390.526 54.177 L 390.526 54.177 L 390.526 54.177 Q 389.621 53.385 387.831 53.385 L 387.831 53.385 L 385.464 53.385 L 385.464 53.385 Z  M 397.811 59.631 L 396.147 59.631 L 396.147 65.391 L 395.229 65.391 L 395.229 52.656 L 398.477 52.656 L 398.477 52.656 Q 400.683 52.656 401.772 53.507 L 401.772 53.507 L 401.772 53.507 Q 402.861 54.357 402.861 56.004 L 402.861 56.004 L 402.861 56.004 Q 402.861 56.733 402.609 57.336 L 402.609 57.336 L 402.609 57.336 Q 402.357 57.939 401.884 58.394 L 401.884 58.394 L 401.884 58.394 Q 401.412 58.848 400.746 59.141 L 400.746 59.141 L 400.746 59.141 Q 400.08 59.433 399.243 59.523 L 399.243 59.523 L 399.243 59.523 Q 399.458 59.658 399.63 59.883 L 399.63 59.883 L 404.013 65.391 L 403.212 65.391 L 403.212 65.391 Q 403.068 65.391 402.964 65.337 L 402.964 65.337 L 402.964 65.337 Q 402.861 65.283 402.762 65.157 L 402.762 65.157 L 398.685 59.991 L 398.685 59.991 Q 398.532 59.793 398.356 59.712 L 398.356 59.712 L 398.356 59.712 Q 398.181 59.631 397.811 59.631 L 397.811 59.631 L 397.811 59.631 Z  M 396.147 53.385 L 396.147 58.947 L 398.361 58.947 L 398.361 58.947 Q 399.207 58.947 399.877 58.745 L 399.877 58.745 L 399.877 58.745 Q 400.548 58.542 401.011 58.164 L 401.011 58.164 L 401.011 58.164 Q 401.475 57.786 401.718 57.255 L 401.718 57.255 L 401.718 57.255 Q 401.96 56.724 401.96 56.058 L 401.96 56.058 L 401.96 56.058 Q 401.96 54.699 401.07 54.042 L 401.07 54.042 L 401.07 54.042 Q 400.179 53.385 398.477 53.385 L 398.477 53.385 L 396.147 53.385 L 396.147 53.385 Z  M 417.288 59.019 L 417.288 59.019 L 417.288 59.019 Q 417.288 60.495 416.847 61.697 L 416.847 61.697 L 416.847 61.697 Q 416.405 62.898 415.605 63.749 L 415.605 63.749 L 415.605 63.749 Q 414.804 64.599 413.688 65.063 L 413.688 65.063 L 413.688 65.063 Q 412.572 65.526 411.213 65.526 L 411.213 65.526 L 411.213 65.526 Q 409.871 65.526 408.756 65.063 L 408.756 65.063 L 408.756 65.063 Q 407.64 64.599 406.839 63.749 L 406.839 63.749 L 406.839 63.749 Q 406.037 62.898 405.592 61.697 L 405.592 61.697 L 405.592 61.697 Q 405.147 60.495 405.147 59.019 L 405.147 59.019 L 405.147 59.019 Q 405.147 57.552 405.592 56.351 L 405.592 56.351 L 405.592 56.351 Q 406.037 55.149 406.839 54.299 L 406.839 54.299 L 406.839 54.299 Q 407.64 53.448 408.756 52.98 L 408.756 52.98 L 408.756 52.98 Q 409.871 52.512 411.213 52.512 L 411.213 52.512 L 411.213 52.512 Q 412.572 52.512 413.688 52.976 L 413.688 52.976 L 413.688 52.976 Q 414.804 53.439 415.605 54.294 L 415.605 54.294 L 415.605 54.294 Q 416.405 55.149 416.847 56.351 L 416.847 56.351 L 416.847 56.351 Q 417.288 57.552 417.288 59.019 Z  M 416.334 59.019 L 416.334 59.019 L 416.334 59.019 Q 416.334 57.687 415.965 56.625 L 415.965 56.625 L 415.965 56.625 Q 415.596 55.563 414.925 54.825 L 414.925 54.825 L 414.925 54.825 Q 414.255 54.087 413.31 53.696 L 413.31 53.696 L 413.31 53.696 Q 412.365 53.304 411.213 53.304 L 411.213 53.304 L 411.213 53.304 Q 410.078 53.304 409.138 53.696 L 409.138 53.696 L 409.138 53.696 Q 408.198 54.087 407.518 54.825 L 407.518 54.825 L 407.518 54.825 Q 406.839 55.563 406.465 56.625 L 406.465 56.625 L 406.465 56.625 Q 406.092 57.687 406.092 59.019 L 406.092 59.019 L 406.092 59.019 Q 406.092 60.36 406.465 61.418 L 406.465 61.418 L 406.465 61.418 Q 406.839 62.475 407.518 63.213 L 407.518 63.213 L 407.518 63.213 Q 408.198 63.951 409.138 64.338 L 409.138 64.338 L 409.138 64.338 Q 410.078 64.725 411.213 64.725 L 411.213 64.725 L 411.213 64.725 Q 412.365 64.725 413.31 64.338 L 413.31 64.338 L 413.31 64.338 Q 414.255 63.951 414.925 63.213 L 414.925 63.213 L 414.925 63.213 Q 415.596 62.475 415.965 61.418 L 415.965 61.418 L 415.965 61.418 Q 416.334 60.36 416.334 59.019 Z  M 423.84 60.261 L 421.472 60.261 L 421.472 65.391 L 420.554 65.391 L 420.554 52.656 L 423.84 52.656 L 423.84 52.656 Q 426.081 52.656 427.219 53.637 L 427.219 53.637 L 427.219 53.637 Q 428.358 54.618 428.358 56.436 L 428.358 56.436 L 428.358 56.436 Q 428.358 57.273 428.047 57.975 L 428.047 57.975 L 428.047 57.975 Q 427.737 58.677 427.152 59.186 L 427.152 59.186 L 427.152 59.186 Q 426.567 59.694 425.73 59.978 L 425.73 59.978 L 425.73 59.978 Q 424.893 60.261 423.84 60.261 L 423.84 60.261 L 423.84 60.261 Z  M 421.472 53.385 L 421.472 59.523 L 423.84 59.523 L 423.84 59.523 Q 424.686 59.523 425.352 59.289 L 425.352 59.289 L 425.352 59.289 Q 426.018 59.055 426.481 58.641 L 426.481 58.641 L 426.481 58.641 Q 426.945 58.227 427.192 57.665 L 427.192 57.665 L 427.192 57.665 Q 427.44 57.102 427.44 56.436 L 427.44 56.436 L 427.44 56.436 Q 427.44 54.969 426.535 54.177 L 426.535 54.177 L 426.535 54.177 Q 425.631 53.385 423.84 53.385 L 423.84 53.385 L 421.472 53.385 L 421.472 53.385 Z  M 430.968 52.656 L 438.6 52.656 L 438.6 53.421 L 431.895 53.421 L 431.895 58.569 L 437.475 58.569 L 437.475 59.316 L 431.895 59.316 L 431.895 64.626 L 438.6 64.626 L 438.6 65.391 L 430.968 65.391 L 430.968 52.656 L 430.968 52.656 Z  M 444.459 59.631 L 442.794 59.631 L 442.794 65.391 L 441.876 65.391 L 441.876 52.656 L 445.125 52.656 L 445.125 52.656 Q 447.33 52.656 448.419 53.507 L 448.419 53.507 L 448.419 53.507 Q 449.508 54.357 449.508 56.004 L 449.508 56.004 L 449.508 56.004 Q 449.508 56.733 449.256 57.336 L 449.256 57.336 L 449.256 57.336 Q 449.004 57.939 448.531 58.394 L 448.531 58.394 L 448.531 58.394 Q 448.059 58.848 447.393 59.141 L 447.393 59.141 L 447.393 59.141 Q 446.727 59.433 445.89 59.523 L 445.89 59.523 L 445.89 59.523 Q 446.106 59.658 446.277 59.883 L 446.277 59.883 L 450.66 65.391 L 449.859 65.391 L 449.859 65.391 Q 449.715 65.391 449.611 65.337 L 449.611 65.337 L 449.611 65.337 Q 449.508 65.283 449.409 65.157 L 449.409 65.157 L 445.332 59.991 L 445.332 59.991 Q 445.179 59.793 445.003 59.712 L 445.003 59.712 L 445.003 59.712 Q 444.828 59.631 444.459 59.631 L 444.459 59.631 L 444.459 59.631 Z  M 442.794 53.385 L 442.794 58.947 L 445.008 58.947 L 445.008 58.947 Q 445.854 58.947 446.524 58.745 L 446.524 58.745 L 446.524 58.745 Q 447.195 58.542 447.658 58.164 L 447.658 58.164 L 447.658 58.164 Q 448.121 57.786 448.365 57.255 L 448.365 57.255 L 448.365 57.255 Q 448.607 56.724 448.607 56.058 L 448.607 56.058 L 448.607 56.058 Q 448.607 54.699 447.717 54.042 L 447.717 54.042 L 447.717 54.042 Q 446.826 53.385 445.125 53.385 L 445.125 53.385 L 442.794 53.385 L 442.794 53.385 Z  M 450.984 52.656 L 460.875 52.656 L 460.875 53.439 L 456.402 53.439 L 456.402 65.391 L 455.484 65.391 L 455.484 53.439 L 450.984 53.439 L 450.984 52.656 L 450.984 52.656 Z  M 464.34 52.656 L 464.34 65.391 L 463.413 65.391 L 463.413 52.656 L 464.34 52.656 L 464.34 52.656 Z  M 468.462 52.656 L 476.094 52.656 L 476.094 53.421 L 469.389 53.421 L 469.389 58.569 L 474.969 58.569 L 474.969 59.316 L 469.389 59.316 L 469.389 64.626 L 476.094 64.626 L 476.094 65.391 L 468.462 65.391 L 468.462 52.656 L 468.462 52.656 Z  M 485.48 53.79 L 485.264 54.204 L 485.264 54.204 Q 485.183 54.357 485.031 54.357 L 485.031 54.357 L 485.031 54.357 Q 484.913 54.357 484.728 54.191 L 484.728 54.191 L 484.728 54.191 Q 484.543 54.024 484.227 53.822 L 484.227 53.822 L 484.227 53.822 Q 483.911 53.619 483.437 53.448 L 483.437 53.448 L 483.437 53.448 Q 482.963 53.277 482.268 53.277 L 482.268 53.277 L 482.268 53.277 Q 481.572 53.277 481.044 53.475 L 481.044 53.475 L 481.044 53.475 Q 480.516 53.673 480.159 54.015 L 480.159 54.015 L 480.159 54.015 Q 479.803 54.357 479.618 54.807 L 479.618 54.807 L 479.618 54.807 Q 479.433 55.257 479.433 55.752 L 479.433 55.752 L 479.433 55.752 Q 479.433 56.4 479.707 56.823 L 479.707 56.823 L 479.707 56.823 Q 479.982 57.246 480.433 57.543 L 480.433 57.543 L 480.433 57.543 Q 480.884 57.84 481.456 58.043 L 481.456 58.043 L 481.456 58.043 Q 482.028 58.245 482.632 58.443 L 482.632 58.443 L 482.632 58.443 Q 483.236 58.641 483.808 58.88 L 483.808 58.88 L 483.808 58.88 Q 484.38 59.118 484.831 59.478 L 484.831 59.478 L 484.831 59.478 Q 485.282 59.838 485.557 60.365 L 485.557 60.365 L 485.557 60.365 Q 485.832 60.891 485.832 61.674 L 485.832 61.674 L 485.832 61.674 Q 485.832 62.475 485.557 63.182 L 485.557 63.182 L 485.557 63.182 Q 485.283 63.888 484.761 64.41 L 484.761 64.41 L 484.761 64.41 Q 484.239 64.932 483.483 65.234 L 483.483 65.234 L 483.483 65.234 Q 482.727 65.535 481.755 65.535 L 481.755 65.535 L 481.755 65.535 Q 480.495 65.535 479.586 65.09 L 479.586 65.09 L 479.586 65.09 Q 478.677 64.644 477.993 63.87 L 477.993 63.87 L 478.245 63.474 L 478.245 63.474 Q 478.353 63.339 478.497 63.339 L 478.497 63.339 L 478.497 63.339 Q 478.578 63.339 478.704 63.447 L 478.704 63.447 L 478.704 63.447 Q 478.83 63.555 479.01 63.713 L 479.01 63.713 L 479.01 63.713 Q 479.19 63.87 479.443 64.055 L 479.443 64.055 L 479.443 64.055 Q 479.695 64.239 480.029 64.397 L 480.029 64.397 L 480.029 64.397 Q 480.362 64.554 480.795 64.662 L 480.795 64.662 L 480.795 64.662 Q 481.227 64.77 481.777 64.77 L 481.777 64.77 L 481.777 64.77 Q 482.534 64.77 483.129 64.541 L 483.129 64.541 L 483.129 64.541 Q 483.724 64.311 484.134 63.915 L 484.134 63.915 L 484.134 63.915 Q 484.544 63.519 484.76 62.975 L 484.76 62.975 L 484.76 62.975 Q 484.977 62.43 484.977 61.809 L 484.977 61.809 L 484.977 61.809 Q 484.977 61.134 484.702 60.698 L 484.702 60.698 L 484.702 60.698 Q 484.427 60.261 483.976 59.969 L 483.976 59.969 L 483.976 59.969 Q 483.525 59.676 482.953 59.478 L 482.953 59.478 L 482.953 59.478 Q 482.381 59.28 481.777 59.091 L 481.777 59.091 L 481.777 59.091 Q 481.173 58.902 480.601 58.668 L 480.601 58.668 L 480.601 58.668 Q 480.029 58.434 479.578 58.07 L 479.578 58.07 L 479.578 58.07 Q 479.127 57.705 478.852 57.161 L 478.852 57.161 L 478.852 57.161 Q 478.578 56.616 478.578 55.797 L 478.578 55.797 L 478.578 55.797 Q 478.578 55.158 478.821 54.564 L 478.821 54.564 L 478.821 54.564 Q 479.064 53.97 479.533 53.516 L 479.533 53.516 L 479.533 53.516 Q 480.001 53.061 480.691 52.787 L 480.691 52.787 L 480.691 52.787 Q 481.38 52.512 482.264 52.512 L 482.264 52.512 L 482.264 52.512 Q 483.255 52.512 484.044 52.827 L 484.044 52.827 L 484.044 52.827 Q 484.832 53.142 485.48 53.79 L 485.48 53.79 L 485.48 53.79 Z  M 387.534 31.056 L 395.166 31.056 L 395.166 31.821 L 388.46 31.821 L 388.46 36.969 L 394.041 36.969 L 394.041 37.716 L 388.46 37.716 L 388.46 43.026 L 395.166 43.026 L 395.166 43.791 L 387.534 43.791 L 387.534 31.056 L 387.534 31.056 Z  M 404.552 32.19 L 404.336 32.604 L 404.336 32.604 Q 404.255 32.757 404.102 32.757 L 404.102 32.757 L 404.102 32.757 Q 403.985 32.757 403.8 32.591 L 403.8 32.591 L 403.8 32.591 Q 403.615 32.424 403.299 32.222 L 403.299 32.222 L 403.299 32.222 Q 402.983 32.019 402.509 31.848 L 402.509 31.848 L 402.509 31.848 Q 402.035 31.677 401.34 31.677 L 401.34 31.677 L 401.34 31.677 Q 400.644 31.677 400.116 31.875 L 400.116 31.875 L 400.116 31.875 Q 399.588 32.073 399.231 32.415 L 399.231 32.415 L 399.231 32.415 Q 398.875 32.757 398.69 33.207 L 398.69 33.207 L 398.69 33.207 Q 398.505 33.657 398.505 34.152 L 398.505 34.152 L 398.505 34.152 Q 398.505 34.8 398.779 35.223 L 398.779 35.223 L 398.779 35.223 Q 399.054 35.646 399.505 35.943 L 399.505 35.943 L 399.505 35.943 Q 399.956 36.24 400.528 36.443 L 400.528 36.443 L 400.528 36.443 Q 401.1 36.645 401.704 36.843 L 401.704 36.843 L 401.704 36.843 Q 402.308 37.041 402.88 37.28 L 402.88 37.28 L 402.88 37.28 Q 403.452 37.518 403.903 37.878 L 403.903 37.878 L 403.903 37.878 Q 404.354 38.238 404.629 38.765 L 404.629 38.765 L 404.629 38.765 Q 404.904 39.291 404.904 40.074 L 404.904 40.074 L 404.904 40.074 Q 404.904 40.875 404.629 41.582 L 404.629 41.582 L 404.629 41.582 Q 404.355 42.288 403.833 42.81 L 403.833 42.81 L 403.833 42.81 Q 403.311 43.332 402.554 43.634 L 402.554 43.634 L 402.554 43.634 Q 401.799 43.935 400.827 43.935 L 400.827 43.935 L 400.827 43.935 Q 399.567 43.935 398.657 43.49 L 398.657 43.49 L 398.657 43.49 Q 397.749 43.044 397.065 42.27 L 397.065 42.27 L 397.317 41.874 L 397.317 41.874 Q 397.424 41.739 397.569 41.739 L 397.569 41.739 L 397.569 41.739 Q 397.65 41.739 397.776 41.847 L 397.776 41.847 L 397.776 41.847 Q 397.902 41.955 398.082 42.113 L 398.082 42.113 L 398.082 42.113 Q 398.262 42.27 398.515 42.455 L 398.515 42.455 L 398.515 42.455 Q 398.767 42.639 399.101 42.797 L 399.101 42.797 L 399.101 42.797 Q 399.434 42.954 399.867 43.062 L 399.867 43.062 L 399.867 43.062 Q 400.299 43.17 400.849 43.17 L 400.849 43.17 L 400.849 43.17 Q 401.606 43.17 402.201 42.941 L 402.201 42.941 L 402.201 42.941 Q 402.796 42.711 403.206 42.315 L 403.206 42.315 L 403.206 42.315 Q 403.616 41.919 403.832 41.375 L 403.832 41.375 L 403.832 41.375 Q 404.049 40.83 404.049 40.209 L 404.049 40.209 L 404.049 40.209 Q 404.049 39.534 403.774 39.098 L 403.774 39.098 L 403.774 39.098 Q 403.499 38.661 403.048 38.369 L 403.048 38.369 L 403.048 38.369 Q 402.597 38.076 402.025 37.878 L 402.025 37.878 L 402.025 37.878 Q 401.453 37.68 400.849 37.491 L 400.849 37.491 L 400.849 37.491 Q 400.245 37.302 399.673 37.068 L 399.673 37.068 L 399.673 37.068 Q 399.101 36.834 398.65 36.47 L 398.65 36.47 L 398.65 36.47 Q 398.199 36.105 397.924 35.561 L 397.924 35.561 L 397.924 35.561 Q 397.65 35.016 397.65 34.197 L 397.65 34.197 L 397.65 34.197 Q 397.65 33.558 397.893 32.964 L 397.893 32.964 L 397.893 32.964 Q 398.136 32.37 398.605 31.916 L 398.605 31.916 L 398.605 31.916 Q 399.073 31.461 399.763 31.187 L 399.763 31.187 L 399.763 31.187 Q 400.452 30.912 401.336 30.912 L 401.336 30.912 L 401.336 30.912 Q 402.327 30.912 403.116 31.227 L 403.116 31.227 L 403.116 31.227 Q 403.904 31.542 404.552 32.19 L 404.552 32.19 L 404.552 32.19 Z  M 406.001 31.056 L 415.893 31.056 L 415.893 31.839 L 411.42 31.839 L 411.42 43.791 L 410.501 43.791 L 410.501 31.839 L 406.001 31.839 L 406.001 31.056 L 406.001 31.056 Z  M 419.358 31.056 L 419.358 43.791 L 418.431 43.791 L 418.431 31.056 L 419.358 31.056 L 419.358 31.056 Z  M 429.6 40.083 L 429.6 40.083 L 429.6 40.083 Q 429.735 40.335 429.834 40.623 L 429.834 40.623 L 429.834 40.623 Q 429.888 40.479 429.946 40.34 L 429.946 40.34 L 429.946 40.34 Q 430.005 40.2 430.077 40.074 L 430.077 40.074 L 435.081 31.227 L 435.081 31.227 Q 435.153 31.11 435.225 31.083 L 435.225 31.083 L 435.225 31.083 Q 435.297 31.056 435.423 31.056 L 435.423 31.056 L 436.062 31.056 L 436.062 43.791 L 435.251 43.791 L 435.251 32.937 L 435.251 32.937 Q 435.251 32.703 435.279 32.442 L 435.279 32.442 L 430.266 41.343 L 430.266 41.343 Q 430.14 41.577 429.906 41.577 L 429.906 41.577 L 429.762 41.577 L 429.762 41.577 Q 429.537 41.577 429.402 41.343 L 429.402 41.343 L 424.254 32.433 L 424.254 32.433 Q 424.281 32.694 424.281 32.937 L 424.281 32.937 L 424.281 43.791 L 423.48 43.791 L 423.48 31.056 L 424.11 31.056 L 424.11 31.056 Q 424.236 31.056 424.312 31.083 L 424.312 31.083 L 424.312 31.083 Q 424.389 31.11 424.461 31.227 L 424.461 31.227 L 429.6 40.083 L 429.6 40.083 Z  M 444.216 31.056 L 449.427 43.791 L 448.716 43.791 L 448.716 43.791 Q 448.59 43.791 448.509 43.724 L 448.509 43.724 L 448.509 43.724 Q 448.428 43.656 448.383 43.548 L 448.383 43.548 L 446.88 39.849 L 440.625 39.849 L 439.131 43.548 L 439.131 43.548 Q 439.095 43.647 439.005 43.719 L 439.005 43.719 L 439.005 43.719 Q 438.915 43.791 438.789 43.791 L 438.789 43.791 L 438.087 43.791 L 443.298 31.056 L 444.216 31.056 L 444.216 31.056 Z  M 443.505 32.739 L 440.904 39.165 L 446.61 39.165 L 444.009 32.73 L 444.009 32.73 Q 443.946 32.577 443.883 32.384 L 443.883 32.384 L 443.883 32.384 Q 443.82 32.19 443.757 31.974 L 443.757 31.974 L 443.757 31.974 Q 443.694 32.19 443.631 32.384 L 443.631 32.384 L 443.631 32.384 Q 443.568 32.577 443.505 32.739 L 443.505 32.739 L 443.505 32.739 Z  M 448.833 31.056 L 458.724 31.056 L 458.724 31.839 L 454.251 31.839 L 454.251 43.791 L 453.333 43.791 L 453.333 31.839 L 448.833 31.839 L 448.833 31.056 L 448.833 31.056 Z  M 460.929 31.056 L 468.561 31.056 L 468.561 31.821 L 461.856 31.821 L 461.856 36.969 L 467.436 36.969 L 467.436 37.716 L 461.856 37.716 L 461.856 43.026 L 468.561 43.026 L 468.561 43.791 L 460.929 43.791 L 460.929 31.056 L 460.929 31.056 Z  M 482.286 37.419 L 482.286 37.419 L 482.286 37.419 Q 482.286 38.895 481.845 40.074 L 481.845 40.074 L 481.845 40.074 Q 481.404 41.253 480.603 42.081 L 480.603 42.081 L 480.603 42.081 Q 479.802 42.909 478.686 43.35 L 478.686 43.35 L 478.686 43.35 Q 477.57 43.791 476.211 43.791 L 476.211 43.791 L 471.567 43.791 L 471.567 31.056 L 476.211 31.056 L 476.211 31.056 Q 477.57 31.056 478.686 31.497 L 478.686 31.497 L 478.686 31.497 Q 479.802 31.938 480.603 32.766 L 480.603 32.766 L 480.603 32.766 Q 481.404 33.594 481.845 34.773 L 481.845 34.773 L 481.845 34.773 Q 482.286 35.952 482.286 37.419 Z  M 481.332 37.419 L 481.332 37.419 L 481.332 37.419 Q 481.332 36.087 480.963 35.043 L 480.963 35.043 L 480.963 35.043 Q 480.594 33.999 479.923 33.279 L 479.923 33.279 L 479.923 33.279 Q 479.253 32.559 478.308 32.181 L 478.308 32.181 L 478.308 32.181 Q 477.363 31.803 476.211 31.803 L 476.211 31.803 L 472.494 31.803 L 472.494 43.044 L 476.211 43.044 L 476.211 43.044 Q 477.363 43.044 478.308 42.666 L 478.308 42.666 L 478.308 42.666 Q 479.253 42.288 479.923 41.568 L 479.923 41.568 L 479.923 41.568 Q 480.594 40.848 480.963 39.804 L 480.963 39.804 L 480.963 39.804 Q 481.332 38.76 481.332 37.419 Z " fill="rgb(0,0,0)"/><path d=" M 193.831 260.236 L 191.464 260.236 L 191.464 265.366 L 190.546 265.366 L 190.546 252.631 L 193.831 252.631 L 193.831 252.631 Q 196.072 252.631 197.21 253.612 L 197.21 253.612 L 197.21 253.612 Q 198.349 254.593 198.349 256.411 L 198.349 256.411 L 198.349 256.411 Q 198.349 257.248 198.038 257.95 L 198.038 257.95 L 198.038 257.95 Q 197.728 258.652 197.143 259.161 L 197.143 259.161 L 197.143 259.161 Q 196.558 259.669 195.721 259.953 L 195.721 259.953 L 195.721 259.953 Q 194.884 260.236 193.831 260.236 L 193.831 260.236 L 193.831 260.236 Z  M 191.464 253.36 L 191.464 259.498 L 193.831 259.498 L 193.831 259.498 Q 194.677 259.498 195.343 259.264 L 195.343 259.264 L 195.343 259.264 Q 196.009 259.03 196.472 258.616 L 196.472 258.616 L 196.472 258.616 Q 196.936 258.202 197.183 257.64 L 197.183 257.64 L 197.183 257.64 Q 197.431 257.077 197.431 256.411 L 197.431 256.411 L 197.431 256.411 Q 197.431 254.944 196.526 254.152 L 196.526 254.152 L 196.526 254.152 Q 195.622 253.36 193.831 253.36 L 193.831 253.36 L 191.464 253.36 L 191.464 253.36 Z  M 203.812 259.606 L 202.147 259.606 L 202.147 265.366 L 201.229 265.366 L 201.229 252.631 L 204.478 252.631 L 204.478 252.631 Q 206.683 252.631 207.772 253.481 L 207.772 253.481 L 207.772 253.481 Q 208.861 254.332 208.861 255.979 L 208.861 255.979 L 208.861 255.979 Q 208.861 256.708 208.609 257.311 L 208.609 257.311 L 208.609 257.311 Q 208.357 257.914 207.884 258.368 L 207.884 258.368 L 207.884 258.368 Q 207.412 258.823 206.746 259.116 L 206.746 259.116 L 206.746 259.116 Q 206.08 259.408 205.243 259.498 L 205.243 259.498 L 205.243 259.498 Q 205.459 259.633 205.63 259.858 L 205.63 259.858 L 210.013 265.366 L 209.212 265.366 L 209.212 265.366 Q 209.068 265.366 208.964 265.312 L 208.964 265.312 L 208.964 265.312 Q 208.861 265.258 208.762 265.132 L 208.762 265.132 L 204.685 259.966 L 204.685 259.966 Q 204.532 259.768 204.356 259.687 L 204.356 259.687 L 204.356 259.687 Q 204.181 259.606 203.812 259.606 L 203.812 259.606 L 203.812 259.606 Z  M 202.147 253.36 L 202.147 258.922 L 204.361 258.922 L 204.361 258.922 Q 205.207 258.922 205.877 258.719 L 205.877 258.719 L 205.877 258.719 Q 206.548 258.517 207.011 258.139 L 207.011 258.139 L 207.011 258.139 Q 207.475 257.761 207.718 257.23 L 207.718 257.23 L 207.718 257.23 Q 207.961 256.699 207.961 256.033 L 207.961 256.033 L 207.961 256.033 Q 207.961 254.674 207.07 254.017 L 207.07 254.017 L 207.07 254.017 Q 206.179 253.36 204.478 253.36 L 204.478 253.36 L 202.147 253.36 L 202.147 253.36 Z  M 223.288 258.994 L 223.288 258.994 L 223.288 258.994 Q 223.288 260.47 222.847 261.671 L 222.847 261.671 L 222.847 261.671 Q 222.406 262.873 221.605 263.724 L 221.605 263.724 L 221.605 263.724 Q 220.804 264.574 219.688 265.038 L 219.688 265.038 L 219.688 265.038 Q 218.572 265.501 217.213 265.501 L 217.213 265.501 L 217.213 265.501 Q 215.872 265.501 214.756 265.038 L 214.756 265.038 L 214.756 265.038 Q 213.64 264.574 212.839 263.724 L 212.839 263.724 L 212.839 263.724 Q 212.038 262.873 211.592 261.671 L 211.592 261.671 L 211.592 261.671 Q 211.147 260.47 211.147 258.994 L 211.147 258.994 L 211.147 258.994 Q 211.147 257.527 211.592 256.325 L 211.592 256.325 L 211.592 256.325 Q 212.038 255.124 212.839 254.274 L 212.839 254.274 L 212.839 254.274 Q 213.64 253.423 214.756 252.955 L 214.756 252.955 L 214.756 252.955 Q 215.872 252.487 217.213 252.487 L 217.213 252.487 L 217.213 252.487 Q 218.572 252.487 219.688 252.951 L 219.688 252.951 L 219.688 252.951 Q 220.804 253.414 221.605 254.269 L 221.605 254.269 L 221.605 254.269 Q 222.406 255.124 222.847 256.325 L 222.847 256.325 L 222.847 256.325 Q 223.288 257.527 223.288 258.994 Z  M 222.334 258.994 L 222.334 258.994 L 222.334 258.994 Q 222.334 257.662 221.965 256.6 L 221.965 256.6 L 221.965 256.6 Q 221.596 255.538 220.925 254.8 L 220.925 254.8 L 220.925 254.8 Q 220.255 254.062 219.31 253.671 L 219.31 253.671 L 219.31 253.671 Q 218.365 253.279 217.213 253.279 L 217.213 253.279 L 217.213 253.279 Q 216.079 253.279 215.138 253.671 L 215.138 253.671 L 215.138 253.671 Q 214.198 254.062 213.518 254.8 L 213.518 254.8 L 213.518 254.8 Q 212.839 255.538 212.465 256.6 L 212.465 256.6 L 212.465 256.6 Q 212.092 257.662 212.092 258.994 L 212.092 258.994 L 212.092 258.994 Q 212.092 260.335 212.465 261.392 L 212.465 261.392 L 212.465 261.392 Q 212.839 262.45 213.518 263.188 L 213.518 263.188 L 213.518 263.188 Q 214.198 263.926 215.138 264.313 L 215.138 264.313 L 215.138 264.313 Q 216.079 264.7 217.213 264.7 L 217.213 264.7 L 217.213 264.7 Q 218.365 264.7 219.31 264.313 L 219.31 264.313 L 219.31 264.313 Q 220.255 263.926 220.925 263.188 L 220.925 263.188 L 220.925 263.188 Q 221.596 262.45 221.965 261.392 L 221.965 261.392 L 221.965 261.392 Q 222.334 260.335 222.334 258.994 Z  M 229.84 260.236 L 227.473 260.236 L 227.473 265.366 L 226.555 265.366 L 226.555 252.631 L 229.84 252.631 L 229.84 252.631 Q 232.081 252.631 233.219 253.612 L 233.219 253.612 L 233.219 253.612 Q 234.358 254.593 234.358 256.411 L 234.358 256.411 L 234.358 256.411 Q 234.358 257.248 234.047 257.95 L 234.047 257.95 L 234.047 257.95 Q 233.737 258.652 233.152 259.161 L 233.152 259.161 L 233.152 259.161 Q 232.567 259.669 231.73 259.953 L 231.73 259.953 L 231.73 259.953 Q 230.893 260.236 229.84 260.236 L 229.84 260.236 L 229.84 260.236 Z  M 227.473 253.36 L 227.473 259.498 L 229.84 259.498 L 229.84 259.498 Q 230.686 259.498 231.352 259.264 L 231.352 259.264 L 231.352 259.264 Q 232.018 259.03 232.481 258.616 L 232.481 258.616 L 232.481 258.616 Q 232.945 258.202 233.192 257.64 L 233.192 257.64 L 233.192 257.64 Q 233.44 257.077 233.44 256.411 L 233.44 256.411 L 233.44 256.411 Q 233.44 254.944 232.535 254.152 L 232.535 254.152 L 232.535 254.152 Q 231.631 253.36 229.84 253.36 L 229.84 253.36 L 227.473 253.36 L 227.473 253.36 Z  M 236.968 252.631 L 244.6 252.631 L 244.6 253.396 L 237.895 253.396 L 237.895 258.544 L 243.475 258.544 L 243.475 259.291 L 237.895 259.291 L 237.895 264.601 L 244.6 264.601 L 244.6 265.366 L 236.968 265.366 L 236.968 252.631 L 236.968 252.631 Z  M 250.459 259.606 L 248.794 259.606 L 248.794 265.366 L 247.876 265.366 L 247.876 252.631 L 251.125 252.631 L 251.125 252.631 Q 253.33 252.631 254.419 253.481 L 254.419 253.481 L 254.419 253.481 Q 255.508 254.332 255.508 255.979 L 255.508 255.979 L 255.508 255.979 Q 255.508 256.708 255.256 257.311 L 255.256 257.311 L 255.256 257.311 Q 255.004 257.914 254.531 258.368 L 254.531 258.368 L 254.531 258.368 Q 254.059 258.823 253.393 259.116 L 253.393 259.116 L 253.393 259.116 Q 252.727 259.408 251.89 259.498 L 251.89 259.498 L 251.89 259.498 Q 252.106 259.633 252.277 259.858 L 252.277 259.858 L 256.66 265.366 L 255.859 265.366 L 255.859 265.366 Q 255.715 265.366 255.611 265.312 L 255.611 265.312 L 255.611 265.312 Q 255.508 265.258 255.409 265.132 L 255.409 265.132 L 251.332 259.966 L 251.332 259.966 Q 251.179 259.768 251.003 259.687 L 251.003 259.687 L 251.003 259.687 Q 250.828 259.606 250.459 259.606 L 250.459 259.606 L 250.459 259.606 Z  M 248.794 253.36 L 248.794 258.922 L 251.008 258.922 L 251.008 258.922 Q 251.854 258.922 252.524 258.719 L 252.524 258.719 L 252.524 258.719 Q 253.195 258.517 253.658 258.139 L 253.658 258.139 L 253.658 258.139 Q 254.122 257.761 254.365 257.23 L 254.365 257.23 L 254.365 257.23 Q 254.608 256.699 254.608 256.033 L 254.608 256.033 L 254.608 256.033 Q 254.608 254.674 253.717 254.017 L 253.717 254.017 L 253.717 254.017 Q 252.826 253.36 251.125 253.36 L 251.125 253.36 L 248.794 253.36 L 248.794 253.36 Z  M 256.984 252.631 L 266.875 252.631 L 266.875 253.414 L 262.402 253.414 L 262.402 265.366 L 261.484 265.366 L 261.484 253.414 L 256.984 253.414 L 256.984 252.631 L 256.984 252.631 Z  M 270.34 252.631 L 270.34 265.366 L 269.413 265.366 L 269.413 252.631 L 270.34 252.631 L 270.34 252.631 Z  M 274.462 252.631 L 282.094 252.631 L 282.094 253.396 L 275.389 253.396 L 275.389 258.544 L 280.969 258.544 L 280.969 259.291 L 275.389 259.291 L 275.389 264.601 L 282.094 264.601 L 282.094 265.366 L 274.462 265.366 L 274.462 252.631 L 274.462 252.631 Z  M 291.48 253.765 L 291.264 254.179 L 291.264 254.179 Q 291.183 254.332 291.031 254.332 L 291.031 254.332 L 291.031 254.332 Q 290.913 254.332 290.728 254.166 L 290.728 254.166 L 290.728 254.166 Q 290.543 253.999 290.227 253.797 L 290.227 253.797 L 290.227 253.797 Q 289.911 253.594 289.437 253.423 L 289.437 253.423 L 289.437 253.423 Q 288.963 253.252 288.268 253.252 L 288.268 253.252 L 288.268 253.252 Q 287.572 253.252 287.044 253.45 L 287.044 253.45 L 287.044 253.45 Q 286.516 253.648 286.159 253.99 L 286.159 253.99 L 286.159 253.99 Q 285.803 254.332 285.618 254.782 L 285.618 254.782 L 285.618 254.782 Q 285.433 255.232 285.433 255.727 L 285.433 255.727 L 285.433 255.727 Q 285.433 256.375 285.707 256.798 L 285.707 256.798 L 285.707 256.798 Q 285.982 257.221 286.433 257.518 L 286.433 257.518 L 286.433 257.518 Q 286.884 257.815 287.456 258.017 L 287.456 258.017 L 287.456 258.017 Q 288.028 258.22 288.632 258.418 L 288.632 258.418 L 288.632 258.418 Q 289.236 258.616 289.808 258.855 L 289.808 258.855 L 289.808 258.855 Q 290.38 259.093 290.831 259.453 L 290.831 259.453 L 290.831 259.453 Q 291.282 259.813 291.557 260.34 L 291.557 260.34 L 291.557 260.34 Q 291.832 260.866 291.832 261.649 L 291.832 261.649 L 291.832 261.649 Q 291.832 262.45 291.557 263.157 L 291.557 263.157 L 291.557 263.157 Q 291.283 263.863 290.761 264.385 L 290.761 264.385 L 290.761 264.385 Q 290.239 264.907 289.483 265.209 L 289.483 265.209 L 289.483 265.209 Q 288.727 265.51 287.755 265.51 L 287.755 265.51 L 287.755 265.51 Q 286.495 265.51 285.586 265.065 L 285.586 265.065 L 285.586 265.065 Q 284.677 264.619 283.993 263.845 L 283.993 263.845 L 284.245 263.449 L 284.245 263.449 Q 284.353 263.314 284.497 263.314 L 284.497 263.314 L 284.497 263.314 Q 284.578 263.314 284.704 263.422 L 284.704 263.422 L 284.704 263.422 Q 284.83 263.53 285.01 263.688 L 285.01 263.688 L 285.01 263.688 Q 285.19 263.845 285.443 264.03 L 285.443 264.03 L 285.443 264.03 Q 285.695 264.214 286.029 264.371 L 286.029 264.371 L 286.029 264.371 Q 286.362 264.529 286.795 264.637 L 286.795 264.637 L 286.795 264.637 Q 287.227 264.745 287.777 264.745 L 287.777 264.745 L 287.777 264.745 Q 288.534 264.745 289.129 264.516 L 289.129 264.516 L 289.129 264.516 Q 289.724 264.286 290.134 263.89 L 290.134 263.89 L 290.134 263.89 Q 290.544 263.494 290.76 262.95 L 290.76 262.95 L 290.76 262.95 Q 290.977 262.405 290.977 261.784 L 290.977 261.784 L 290.977 261.784 Q 290.977 261.109 290.702 260.673 L 290.702 260.673 L 290.702 260.673 Q 290.427 260.236 289.976 259.943 L 289.976 259.943 L 289.976 259.943 Q 289.525 259.651 288.953 259.453 L 288.953 259.453 L 288.953 259.453 Q 288.381 259.255 287.777 259.066 L 287.777 259.066 L 287.777 259.066 Q 287.173 258.877 286.601 258.643 L 286.601 258.643 L 286.601 258.643 Q 286.029 258.409 285.578 258.044 L 285.578 258.044 L 285.578 258.044 Q 285.127 257.68 284.852 257.135 L 284.852 257.135 L 284.852 257.135 Q 284.578 256.591 284.578 255.772 L 284.578 255.772 L 284.578 255.772 Q 284.578 255.133 284.821 254.539 L 284.821 254.539 L 284.821 254.539 Q 285.064 253.945 285.533 253.491 L 285.533 253.491 L 285.533 253.491 Q 286.001 253.036 286.691 252.762 L 286.691 252.762 L 286.691 252.762 Q 287.38 252.487 288.264 252.487 L 288.264 252.487 L 288.264 252.487 Q 289.255 252.487 290.044 252.802 L 290.044 252.802 L 290.044 252.802 Q 290.832 253.117 291.48 253.765 L 291.48 253.765 L 291.48 253.765 Z  M 184.835 243.109 L 184.835 243.109 L 184.835 243.109 Q 185.753 243.109 186.478 242.79 L 186.478 242.79 L 186.478 242.79 Q 187.202 242.47 187.706 241.903 L 187.706 241.903 L 187.706 241.903 Q 188.21 241.336 188.476 240.567 L 188.476 240.567 L 188.476 240.567 Q 188.741 239.797 188.741 238.906 L 188.741 238.906 L 188.741 231.031 L 189.659 231.031 L 189.659 238.906 L 189.659 238.906 Q 189.659 239.959 189.326 240.873 L 189.326 240.873 L 189.326 240.873 Q 188.993 241.786 188.368 242.466 L 188.368 242.466 L 188.368 242.466 Q 187.742 243.145 186.847 243.532 L 186.847 243.532 L 186.847 243.532 Q 185.951 243.919 184.835 243.919 L 184.835 243.919 L 184.835 243.919 Q 183.719 243.919 182.824 243.532 L 182.824 243.532 L 182.824 243.532 Q 181.928 243.145 181.303 242.466 L 181.303 242.466 L 181.303 242.466 Q 180.677 241.786 180.344 240.873 L 180.344 240.873 L 180.344 240.873 Q 180.011 239.959 180.011 238.906 L 180.011 238.906 L 180.011 231.031 L 180.938 231.031 L 180.938 238.897 L 180.938 238.897 Q 180.938 239.788 181.204 240.558 L 181.204 240.558 L 181.204 240.558 Q 181.469 241.327 181.969 241.894 L 181.969 241.894 L 181.969 241.894 Q 182.468 242.461 183.193 242.785 L 183.193 242.785 L 183.193 242.785 Q 183.917 243.109 184.835 243.109 Z  M 193.781 231.031 L 193.781 231.031 L 193.781 231.031 Q 193.907 231.031 193.979 231.063 L 193.979 231.063 L 193.979 231.063 Q 194.051 231.094 194.132 231.202 L 194.132 231.202 L 202.376 242.236 L 202.376 242.236 Q 202.349 241.966 202.349 241.714 L 202.349 241.714 L 202.349 231.031 L 203.159 231.031 L 203.159 243.766 L 202.718 243.766 L 202.718 243.766 Q 202.511 243.766 202.385 243.586 L 202.385 243.586 L 194.105 232.534 L 194.105 232.534 Q 194.132 232.804 194.132 233.047 L 194.132 233.047 L 194.132 243.766 L 193.331 243.766 L 193.331 231.031 L 193.781 231.031 L 193.781 231.031 Z  M 206.939 231.031 L 214.571 231.031 L 214.571 231.796 L 207.866 231.796 L 207.866 236.944 L 213.446 236.944 L 213.446 237.691 L 207.866 237.691 L 207.866 243.001 L 214.571 243.001 L 214.571 243.766 L 206.939 243.766 L 206.939 231.031 L 206.939 231.031 Z  M 223.957 232.165 L 223.742 232.579 L 223.742 232.579 Q 223.661 232.732 223.508 232.732 L 223.508 232.732 L 223.508 232.732 Q 223.391 232.732 223.206 232.566 L 223.206 232.566 L 223.206 232.566 Q 223.02 232.399 222.704 232.197 L 222.704 232.197 L 222.704 232.197 Q 222.388 231.994 221.914 231.823 L 221.914 231.823 L 221.914 231.823 Q 221.44 231.652 220.745 231.652 L 220.745 231.652 L 220.745 231.652 Q 220.05 231.652 219.522 231.85 L 219.522 231.85 L 219.522 231.85 Q 218.993 232.048 218.637 232.39 L 218.637 232.39 L 218.637 232.39 Q 218.28 232.732 218.095 233.182 L 218.095 233.182 L 218.095 233.182 Q 217.91 233.632 217.91 234.127 L 217.91 234.127 L 217.91 234.127 Q 217.91 234.775 218.185 235.198 L 218.185 235.198 L 218.185 235.198 Q 218.46 235.621 218.91 235.918 L 218.91 235.918 L 218.91 235.918 Q 219.361 236.215 219.933 236.418 L 219.933 236.418 L 219.933 236.418 Q 220.506 236.62 221.11 236.818 L 221.11 236.818 L 221.11 236.818 Q 221.713 237.016 222.286 237.255 L 222.286 237.255 L 222.286 237.255 Q 222.858 237.493 223.309 237.853 L 223.309 237.853 L 223.309 237.853 Q 223.759 238.213 224.034 238.74 L 224.034 238.74 L 224.034 238.74 Q 224.309 239.266 224.309 240.049 L 224.309 240.049 L 224.309 240.049 Q 224.309 240.85 224.035 241.557 L 224.035 241.557 L 224.035 241.557 Q 223.76 242.263 223.238 242.785 L 223.238 242.785 L 223.238 242.785 Q 222.716 243.307 221.96 243.609 L 221.96 243.609 L 221.96 243.609 Q 221.204 243.91 220.232 243.91 L 220.232 243.91 L 220.232 243.91 Q 218.972 243.91 218.063 243.465 L 218.063 243.465 L 218.063 243.465 Q 217.154 243.019 216.47 242.245 L 216.47 242.245 L 216.722 241.849 L 216.722 241.849 Q 216.83 241.714 216.974 241.714 L 216.974 241.714 L 216.974 241.714 Q 217.055 241.714 217.181 241.822 L 217.181 241.822 L 217.181 241.822 Q 217.307 241.93 217.488 242.088 L 217.488 242.088 L 217.488 242.088 Q 217.668 242.245 217.92 242.43 L 217.92 242.43 L 217.92 242.43 Q 218.173 242.614 218.506 242.772 L 218.506 242.772 L 218.506 242.772 Q 218.84 242.929 219.272 243.037 L 219.272 243.037 L 219.272 243.037 Q 219.705 243.145 220.255 243.145 L 220.255 243.145 L 220.255 243.145 Q 221.012 243.145 221.606 242.916 L 221.606 242.916 L 221.606 242.916 Q 222.201 242.686 222.611 242.29 L 222.611 242.29 L 222.611 242.29 Q 223.021 241.894 223.238 241.35 L 223.238 241.35 L 223.238 241.35 Q 223.454 240.805 223.454 240.184 L 223.454 240.184 L 223.454 240.184 Q 223.454 239.509 223.179 239.073 L 223.179 239.073 L 223.179 239.073 Q 222.904 238.636 222.454 238.344 L 222.454 238.344 L 222.454 238.344 Q 222.003 238.051 221.431 237.853 L 221.431 237.853 L 221.431 237.853 Q 220.858 237.655 220.255 237.466 L 220.255 237.466 L 220.255 237.466 Q 219.651 237.277 219.078 237.043 L 219.078 237.043 L 219.078 237.043 Q 218.506 236.809 218.055 236.445 L 218.055 236.445 L 218.055 236.445 Q 217.605 236.08 217.33 235.536 L 217.33 235.536 L 217.33 235.536 Q 217.055 234.991 217.055 234.172 L 217.055 234.172 L 217.055 234.172 Q 217.055 233.533 217.298 232.939 L 217.298 232.939 L 217.298 232.939 Q 217.542 232.345 218.01 231.891 L 218.01 231.891 L 218.01 231.891 Q 218.479 231.436 219.168 231.162 L 219.168 231.162 L 219.168 231.162 Q 219.858 230.887 220.741 230.887 L 220.741 230.887 L 220.741 230.887 Q 221.733 230.887 222.521 231.202 L 222.521 231.202 L 222.521 231.202 Q 223.31 231.517 223.957 232.165 L 223.957 232.165 L 223.957 232.165 Z  M 225.407 231.031 L 235.298 231.031 L 235.298 231.814 L 230.825 231.814 L 230.825 243.766 L 229.907 243.766 L 229.907 231.814 L 225.407 231.814 L 225.407 231.031 L 225.407 231.031 Z  M 238.763 231.031 L 238.763 243.766 L 237.836 243.766 L 237.836 231.031 L 238.763 231.031 L 238.763 231.031 Z  M 249.005 240.058 L 249.005 240.058 L 249.005 240.058 Q 249.14 240.31 249.239 240.598 L 249.239 240.598 L 249.239 240.598 Q 249.293 240.454 249.352 240.315 L 249.352 240.315 L 249.352 240.315 Q 249.41 240.175 249.482 240.049 L 249.482 240.049 L 254.486 231.202 L 254.486 231.202 Q 254.558 231.085 254.63 231.058 L 254.63 231.058 L 254.63 231.058 Q 254.702 231.031 254.828 231.031 L 254.828 231.031 L 255.467 231.031 L 255.467 243.766 L 254.657 243.766 L 254.657 232.912 L 254.657 232.912 Q 254.657 232.678 254.684 232.417 L 254.684 232.417 L 249.671 241.318 L 249.671 241.318 Q 249.545 241.552 249.311 241.552 L 249.311 241.552 L 249.167 241.552 L 249.167 241.552 Q 248.942 241.552 248.807 241.318 L 248.807 241.318 L 243.659 232.408 L 243.659 232.408 Q 243.686 232.669 243.686 232.912 L 243.686 232.912 L 243.686 243.766 L 242.885 243.766 L 242.885 231.031 L 243.515 231.031 L 243.515 231.031 Q 243.641 231.031 243.718 231.058 L 243.718 231.058 L 243.718 231.058 Q 243.794 231.085 243.866 231.202 L 243.866 231.202 L 249.005 240.058 L 249.005 240.058 Z  M 263.621 231.031 L 268.832 243.766 L 268.121 243.766 L 268.121 243.766 Q 267.995 243.766 267.914 243.699 L 267.914 243.699 L 267.914 243.699 Q 267.833 243.631 267.788 243.523 L 267.788 243.523 L 266.285 239.824 L 260.03 239.824 L 258.536 243.523 L 258.536 243.523 Q 258.5 243.622 258.41 243.694 L 258.41 243.694 L 258.41 243.694 Q 258.32 243.766 258.194 243.766 L 258.194 243.766 L 257.492 243.766 L 262.703 231.031 L 263.621 231.031 L 263.621 231.031 Z  M 262.91 232.714 L 260.309 239.14 L 266.015 239.14 L 263.414 232.705 L 263.414 232.705 Q 263.351 232.552 263.288 232.359 L 263.288 232.359 L 263.288 232.359 Q 263.225 232.165 263.162 231.949 L 263.162 231.949 L 263.162 231.949 Q 263.099 232.165 263.036 232.359 L 263.036 232.359 L 263.036 232.359 Q 262.973 232.552 262.91 232.714 L 262.91 232.714 L 262.91 232.714 Z  M 268.238 231.031 L 278.129 231.031 L 278.129 231.814 L 273.656 231.814 L 273.656 243.766 L 272.738 243.766 L 272.738 231.814 L 268.238 231.814 L 268.238 231.031 L 268.238 231.031 Z  M 280.334 231.031 L 287.966 231.031 L 287.966 231.796 L 281.261 231.796 L 281.261 236.944 L 286.841 236.944 L 286.841 237.691 L 281.261 237.691 L 281.261 243.001 L 287.966 243.001 L 287.966 243.766 L 280.334 243.766 L 280.334 231.031 L 280.334 231.031 Z  M 301.691 237.394 L 301.691 237.394 L 301.691 237.394 Q 301.691 238.87 301.25 240.049 L 301.25 240.049 L 301.25 240.049 Q 300.809 241.228 300.008 242.056 L 300.008 242.056 L 300.008 242.056 Q 299.207 242.884 298.091 243.325 L 298.091 243.325 L 298.091 243.325 Q 296.975 243.766 295.616 243.766 L 295.616 243.766 L 290.972 243.766 L 290.972 231.031 L 295.616 231.031 L 295.616 231.031 Q 296.975 231.031 298.091 231.472 L 298.091 231.472 L 298.091 231.472 Q 299.207 231.913 300.008 232.741 L 300.008 232.741 L 300.008 232.741 Q 300.809 233.569 301.25 234.748 L 301.25 234.748 L 301.25 234.748 Q 301.691 235.927 301.691 237.394 Z  M 300.737 237.394 L 300.737 237.394 L 300.737 237.394 Q 300.737 236.062 300.368 235.018 L 300.368 235.018 L 300.368 235.018 Q 299.999 233.974 299.329 233.254 L 299.329 233.254 L 299.329 233.254 Q 298.658 232.534 297.713 232.156 L 297.713 232.156 L 297.713 232.156 Q 296.768 231.778 295.616 231.778 L 295.616 231.778 L 291.899 231.778 L 291.899 243.019 L 295.616 243.019 L 295.616 243.019 Q 296.768 243.019 297.713 242.641 L 297.713 242.641 L 297.713 242.641 Q 298.658 242.263 299.329 241.543 L 299.329 241.543 L 299.329 241.543 Q 299.999 240.823 300.368 239.779 L 300.368 239.779 L 300.368 239.779 Q 300.737 238.735 300.737 237.394 Z " fill="rgb(0,0,0)"/><g><rect x="122.283" y="33.342" width="10" height="28.567" transform="matrix(0,1,-1,0,174.908,-79.658)" fill="rgb(210,209,209)"/><polygon points="163,47.625,140,60.719,140,34.531" fill="rgb(210,209,209)"/></g></svg>